<svg width="571" height="308" viewBox="0 0 571 308" fill="none" xmlns="http://www.w3.org/2000/svg">
<path d="M313.258 154.629C317.889 159.431 321.806 155.927 325.294 153.609C333.001 148.489 339.049 141.557 344.545 134.168C353.907 121.583 365.709 112.54 381.245 109.041C388.402 107.429 391.19 109.109 392.761 115.519C394.86 115.184 395.287 113.08 396.564 111.92C397.659 110.925 398.592 109.25 400.267 109.912C404.495 111.582 408.034 109.592 411.996 107.8C412.349 110.375 410.449 111.215 409.34 112.387C400.168 122.077 391.298 132.01 384.019 143.25C382.387 145.771 380.813 148.321 380.044 151.275C378.89 155.715 381.235 158.062 385.705 156.802C388.798 155.93 391.438 154.163 393.926 152.17C401.4 146.184 407.506 138.91 413.313 131.382C418.01 125.293 423.125 119.616 428.882 114.518C429.257 114.187 429.581 113.788 429.989 113.509C434.069 110.713 438.172 106.591 443.458 109.633C448.832 112.725 446.53 118.082 445.813 122.753C445.739 123.234 445.691 123.718 445.576 124.645C447.909 124.283 448.865 122.441 450.161 121.196C454.977 116.571 459.722 111.899 466.255 109.643C470.063 108.327 473.814 107.773 477.12 110.592C480.601 113.56 479.855 117.614 478.924 121.292C477.299 127.71 472.665 132.14 467.97 136.458C463.804 140.289 459.62 144.11 455.624 148.114C453.697 150.045 452.137 152.666 453.866 155.302C455.63 157.991 458.667 157.098 461.216 156.467C464.686 155.607 467.45 153.372 470.195 151.188C476.895 145.858 482.46 139.451 487.653 132.701C496.904 120.676 508.515 112.195 523.547 108.972C530.262 107.532 532.901 109.175 534.774 115.67C536.682 115.05 537.243 113.122 538.484 111.955C539.442 111.054 540.345 109.368 541.658 109.89C546.128 111.668 549.946 109.381 553.993 107.947C554.301 110.451 552.473 111.149 551.408 112.253C543.066 120.897 535.254 129.983 528.187 139.701C525.731 143.078 523.423 146.573 522.034 150.531C520.404 155.174 522.722 157.715 527.567 156.709C530.406 156.12 532.765 154.532 535.017 152.783C541.916 147.426 547.557 140.858 553.03 134.123C554.108 132.796 554.924 131.001 556.958 130.957C557.932 132.228 557.367 133.106 556.756 133.892C550.296 142.195 543.539 150.216 534.859 156.352C533.776 157.119 532.644 157.844 531.458 158.434C522.634 162.822 517.047 159.096 517.647 149.231C517.764 147.321 518.004 145.419 518.233 143.04C514.177 147.608 510.082 151.496 505.457 154.753C500.546 158.212 495.534 162.255 489.04 159.271C482.863 156.433 482.88 150.359 482.599 144.2C480.068 145.061 478.886 147.148 477.283 148.622C472.734 152.803 468.219 157.047 462.32 159.275C457.836 160.969 453.384 161.015 449.812 157.267C446.404 153.691 446.624 149.402 448.266 145.121C450.883 138.293 456.419 133.881 461.696 129.287C465.339 126.115 469.201 123.129 471.869 119.043C473.183 117.03 475.044 114.567 472.895 112.235C470.987 110.163 468.493 111.481 466.399 112.454C459.308 115.747 453.722 120.986 448.531 126.669C439.98 136.03 432.347 146.14 424.749 156.269C422.94 158.681 421.359 160.566 417.807 159.346C414.49 158.207 411.379 160.156 407.944 161.399C407.575 158.811 409.487 157.947 410.575 156.76C420.591 145.83 431.022 135.246 438.92 122.57C440.146 120.603 441.119 118.47 442.105 116.365C442.757 114.975 443.156 113.448 441.868 112.182C440.401 110.741 438.787 111.372 437.243 112.11C432.806 114.23 429.095 117.372 425.903 121.001C419.525 128.254 413.328 135.669 407.168 143.11C403.206 147.897 398.518 151.881 393.769 155.813C391.699 157.527 389.309 158.741 386.765 159.594C380.6 161.664 376.088 158.634 375.731 152.15C375.607 149.896 375.712 147.629 375.712 144.549C371.531 148.094 368.045 151.081 364.52 154.022C363.499 154.873 362.39 155.628 361.28 156.363C349.673 164.047 341.715 160.187 340.703 146.394C340.656 145.751 340.583 145.11 340.477 143.983C336.151 147.826 332.132 151.426 328.079 154.986C325.929 156.875 323.448 158.228 320.782 159.254C312.909 162.282 307.472 158.064 308.376 149.612C308.495 148.497 309.107 147.371 308.013 146.044C304.204 147.754 301.76 151.31 298.361 153.598C294.746 156.032 291.149 158.362 286.907 159.567C276.877 162.417 272.173 158.251 273.505 146.943C270.053 149.836 266.952 152.441 263.844 155.036C261.252 157.201 258.312 158.82 255.121 159.808C249.216 161.636 245.182 158.821 244.854 152.657C244.714 150.026 245.048 147.369 245.207 143.799C243.401 145.51 241.952 146.881 240.505 148.254C236.024 152.508 231.506 156.785 225.667 159.096C217.294 162.411 212.187 158.435 213.024 149.456C213.115 148.481 213.333 147.518 213.659 145.531C210.057 148.651 207.137 151.172 204.226 153.703C201.181 156.35 197.905 158.587 193.963 159.711C187.208 161.636 182.733 158.277 182.89 151.195C183.011 145.703 185.28 140.827 187.962 136.195C192.991 127.507 199.32 119.756 205.813 112.144C206.882 110.892 208.103 109.121 209.896 109.839C214.304 111.603 217.968 109.469 222.14 107.733C222.451 110.317 220.621 111.184 219.462 112.307C210.117 121.367 201.217 130.82 193.476 141.313C192.389 142.787 191.273 144.256 190.352 145.834C188.541 148.937 185.282 152.655 188.389 155.718C191.78 159.06 196.004 156.23 199.246 153.945C208.063 147.734 215.154 139.772 221.261 130.95C225.629 124.641 230.232 118.525 235.079 112.58C236.787 110.485 238.464 109.155 241.454 110.269C245.401 111.738 248.579 108.666 252.126 107.173C252.612 110.079 250.676 110.621 249.6 111.699C239.826 121.489 230.256 131.462 221.987 142.591C220 145.265 218.192 148.082 217.14 151.291C215.877 155.142 217.247 156.95 221.344 156.957C223.975 156.961 226.133 155.795 228.271 154.43C240.325 146.731 248.541 135.282 257.499 124.562C259.849 121.75 262.09 118.846 264.323 115.939C267.034 112.411 269.196 108.442 275.071 110.424C277.903 111.38 280.382 108.096 283.654 107.602C284.037 109.816 282.264 110.545 281.24 111.58C271.984 120.948 262.987 130.543 254.859 140.926C252.482 143.963 250.311 147.135 248.951 150.739C247.254 155.233 249.272 157.564 254.022 156.719C258.297 155.958 261.648 153.374 264.75 150.605C271.725 144.379 278.062 137.567 283.437 129.858C301.363 104.147 319.833 78.8515 341.669 56.2355C349.56 48.0621 358.105 40.6699 368.02 34.955C373.901 31.5653 380.208 29.5711 386.875 28.7718C403.75 26.7484 415.099 41.2496 409.622 58.0997C405.12 71.9514 395.099 81.0297 382.331 87.1079C374.957 90.6183 367.142 93.1271 358.771 93.0978C356.753 93.0907 354.703 93.1377 353.003 91.8915C350.638 90.1572 350.111 87.767 351.559 85.2894C352.893 83.0049 354.933 81.9649 357.395 83.8521C361.1 86.6929 365.367 85.8359 369.461 85.6829C386.778 85.0356 405.435 69.4184 407.879 53.6638C410.107 39.2996 399.2 28.874 384.903 31.5747C376.133 33.2316 368.688 37.4669 361.857 42.9561C349.679 52.7415 339.704 64.6163 330.387 77.0136C315.471 96.8596 301.314 117.255 287.691 138.011C285.324 141.617 283.423 145.542 281.479 149.407C280.448 151.455 279.101 153.899 281.015 155.922C282.857 157.87 285.416 156.852 287.626 156.182C293.87 154.289 298.684 150.119 303.404 145.895C313.553 136.814 320.357 124.936 329.204 114.758C331.842 111.723 333.863 108.321 338.961 110.466C341.709 111.622 344.173 108.699 347.136 108.394C347.853 110.104 346.508 110.79 345.646 111.632C336.224 120.839 327.135 130.357 319.213 140.903C316.245 144.854 312.871 148.753 313.258 154.629ZM507.276 124.628C500.368 131.879 493.979 139.499 490.285 148.986C489.371 151.335 488.385 153.992 490.581 155.953C492.656 157.805 495.321 157.048 497.656 156.026C499.166 155.365 500.593 154.471 501.963 153.542C512.035 146.71 519.917 137.821 526.282 127.516C528.208 124.398 530.114 121.264 530.779 117.592C531.132 115.643 531.684 113.457 529.847 112.006C528.071 110.604 526.081 111.352 524.194 112.164C517.811 114.91 512.686 119.371 507.276 124.628ZM381.966 131.308C383.643 128.438 385.544 125.673 386.938 122.672C388.52 119.267 391.054 114.957 387.609 112.115C384.419 109.483 380.579 112.712 377.669 114.637C365.799 122.492 356.456 132.775 350.031 145.505C348.409 148.718 345.324 152.831 348.968 155.958C352.366 158.874 356.228 156.029 359.446 153.974C368.422 148.243 375.382 140.456 381.966 131.308Z" fill="#545454"/>
<path d="M287.031 285.982C309.259 297.693 330.926 297.935 352.289 284.725C358.532 280.865 363.032 275.428 366.418 268.165C367.78 270.511 367.235 272.146 366.811 273.84C362.447 291.28 346.629 304.853 327.835 307.235C293.754 311.554 269.567 296.371 252.758 268.073C248.684 261.215 244.481 258.605 236.71 259.12C224.86 259.904 226.509 257.69 226.376 269.616C226.314 275.114 226.413 280.614 226.349 286.113C226.29 291.103 226.082 296.096 229.512 300.942C221.937 300.942 215.048 300.942 207.45 300.942C211.784 293.925 210.632 286.542 210.648 279.324C210.703 254.328 210.641 229.332 210.692 204.336C210.703 198.84 210.785 193.381 206.807 187.224C215.031 187.224 222.116 186.942 229.17 187.288C240.297 187.835 251.491 186.67 262.558 188.548C278.276 191.214 288.063 202.223 289.487 218.185C290.535 229.921 289.177 240.78 280.291 249.509C276.528 253.206 271.998 255.638 267.006 257.193C263.206 258.377 262.384 260.175 264.673 263.738C270.442 272.713 277.453 280.357 287.031 285.982ZM270.849 238.095C273.405 231.192 273.254 223.982 272.65 216.88C271.464 202.924 263.291 194.195 249.559 191.032C244.102 189.776 238.618 190.582 233.178 190.09C228.327 189.652 226.413 191.996 226.405 196.425C226.372 215.228 226.416 234.031 226.358 252.833C226.349 255.59 227.429 256.769 230.194 256.709C234.851 256.608 239.526 256.891 244.167 256.601C256.386 255.837 265.895 250.84 270.849 238.095Z" fill="#545454"/>
<path d="M163.546 139.398C147.914 156.369 129.395 167.609 106.735 171.036C95.3717 172.754 83.7881 174.088 73.1674 167.642C64.9606 162.661 63.9963 151.965 71.0753 145.52C73.2695 143.522 75.8012 142.535 78.8091 142.61C81.1575 142.669 83.1471 143.329 84.1933 145.522C85.3374 147.92 84.6541 150.218 82.8218 151.914C80.7569 153.825 78.377 155.394 76.1598 157.144C72.1157 160.336 72.3089 163.564 76.7627 166.133C79.083 167.471 81.5879 168.328 84.2935 168.629C102.136 170.614 118.359 166.148 133.083 156.141C147.604 146.272 158.735 132.967 169.565 119.401C170.037 118.81 170.221 117.988 170.848 116.581C167.861 117.353 166.254 119.054 164.492 120.369C157.633 125.493 150.315 129.758 142.129 132.358C127.297 137.068 114.569 128.318 113.881 112.81C113.732 109.453 112.756 108.152 109.268 108.018C102.781 107.769 96.3446 106.826 90.2023 104.523C66.7301 95.7231 56.8312 70.9126 68.6666 47.922C83.154 19.7799 107.185 4.62974 138.213 0.118997C139.844 -0.118049 141.579 -0.20507 142.845 1.90292C140.092 4.07079 136.666 3.70442 133.64 4.06179C105.538 7.37997 76.346 32.9129 70.9321 60.6629C65.1019 90.5468 86.8862 105.847 110.835 104.82C112.937 104.73 114.192 103.834 114.814 101.766C119.636 85.7198 129.444 72.7143 140.325 60.4182C156.591 42.0372 175.116 26.4183 197.128 15.2977C204.714 11.4655 212.612 8.2546 221.432 8.61622C228.532 8.90727 232.532 12.9473 232.281 20.0921C231.947 29.6185 226.91 37.2774 221.207 44.2047C196.986 73.6222 167.153 94.8685 130.093 105.159C127.18 105.968 125.495 107.251 124.898 110.329C123.69 116.55 121.108 123.379 127.264 127.954C133.009 132.222 139.855 130.257 145.887 127.654C156.557 123.048 165.491 115.707 174.225 108.223C181.054 102.372 187.583 96.1704 194.204 90.0795C197.905 86.6745 201.855 83.6211 206.404 81.4579C209.358 80.0529 212.451 79.1013 215.522 80.2431C215.864 81.6594 215.318 82.2023 214.713 82.3285C205.598 84.2322 200.423 91.0335 195.395 97.9339C185.197 111.929 175.86 126.582 163.546 139.398ZM196.994 64.3542C205.68 56.0762 214.356 47.7936 220.826 37.5412C223.869 32.7193 226.491 27.6977 227.577 22.0637C228.969 14.837 225.569 11.2769 218.307 11.8772C212.362 12.3686 206.827 14.2459 201.821 17.2614C169.96 36.4534 146.951 63.7431 130.014 96.4801C129.18 98.094 127.911 99.9418 129.03 102.023C143.078 101.267 174.835 83.7183 196.994 64.3542Z" fill="#545454"/>
<path d="M156.077 301.269C142.789 301.272 129.999 301.272 116.445 301.272C120.328 294.236 118.98 287.238 119.005 280.411C119.107 253.28 119.031 226.149 119.034 199.018C119.035 195.341 119.205 191.645 116.589 188.957C116.964 187.542 117.847 187.29 118.616 187.274C133.909 186.952 149.231 186.347 164.442 188.383C174.664 189.751 182.722 194.932 184.809 205.481C186.949 216.294 185.916 226.867 175.6 234.035C175.196 234.315 174.772 234.566 174.305 234.863C175.866 236.918 177.938 237.109 179.718 237.8C193.757 243.25 200.691 255.678 198.993 272.429C197.464 287.507 188.457 297.383 173.963 300.251C168.18 301.395 162.388 301.226 156.077 301.269ZM177.751 249.876C175.56 246.664 172.839 244.013 169.396 242.174C159.735 237.015 149.229 237.216 138.742 237.483C136.314 237.545 135.388 239.21 135.392 241.568C135.421 258.867 135.396 276.167 135.426 293.467C135.433 297.151 137.298 298.886 141.072 298.748C145.392 298.591 149.727 298.8 154.044 298.598C168.005 297.945 178.622 290.022 181.149 277.746C183.058 268.471 182.631 259.2 177.751 249.876ZM135.374 206.451C135.374 211.434 135.374 216.418 135.374 221.401C135.373 235.545 135.373 235.545 149.745 234.587C158.596 233.996 164.318 229.671 167.209 221.384C173.421 203.584 163.954 190.021 145.307 190.012C143.646 190.011 141.985 190.044 140.324 190.047C137.026 190.051 135.455 191.793 135.412 194.993C135.366 198.48 135.384 201.969 135.374 206.451Z" fill="#545454"/>
<path d="M52.6006 210.437C55.1831 213.472 56.6591 216.964 60.1254 219.502C63.9512 215.272 66.3697 210.543 66.832 204.922C67.0962 201.711 65.4241 199.558 62.4454 198.395C61.4388 198.003 60.6632 197.365 60.9084 196.165C61.0962 195.245 61.8535 194.753 62.7422 194.766C70.2159 194.872 77.7051 194.11 85.1578 195.144C85.5145 195.194 85.7924 195.812 86.1266 196.187C85.9521 196.722 85.9231 197.486 85.6338 197.602C74.0802 202.249 72.2562 214.42 65.9319 223.094C65.5189 223.66 65.4421 224.722 65.6341 225.44C67.0504 230.734 77.2465 235.832 82.3937 233.846C83.6085 233.377 84.8167 232.251 85.9565 233.699C86.9887 235.01 85.9824 236.2 85.332 237.345C78.432 249.484 65.738 252.135 54.9909 243.275C51.3632 240.284 48.8448 239.876 44.7012 242.544C36.6683 247.717 27.7745 250.349 18.0396 247.839C1.62877 243.606 -5.11781 226.006 4.27571 211.838C7.6669 206.723 12.252 202.787 17.661 200.086C21.5521 198.143 23.0484 196.153 21.6393 191.604C19.9479 186.144 20.2887 180.39 21.8726 174.824C25.3279 162.681 38.8734 155.179 50.6505 158.854C62.8049 162.648 66.5346 175.97 58.2509 185.675C54.3524 190.242 48.9129 192.479 43.2278 195.733C46.3919 200.706 49.3937 205.424 52.6006 210.437ZM37.1264 223.334C32.9579 216.662 28.7894 209.991 24.6474 203.362C18.5274 206.791 16.3532 210.234 17.671 215.093C19.802 222.95 23.888 229.775 30.2292 234.96C35.0118 238.87 39.8437 238.417 44.6619 233.91C42.3132 230.616 39.9276 227.27 37.1264 223.334ZM35.4675 174.976C36.0915 179.118 37.481 183.007 39.1403 186.842C40.4245 189.81 42.0613 189.912 44.5612 188.266C48.8312 185.456 49.4566 181.369 48.7815 176.858C48.1039 172.331 46.8455 167.813 42.3865 165.658C39.1602 164.099 36.4536 165.575 35.5478 169.175C35.1533 170.743 35.4202 172.477 35.4675 174.976Z" fill="#545454"/>
<path d="M480.043 201.895C495.923 187.727 513.855 183.385 533.642 190.262C553.616 197.205 565.14 212.283 569.267 232.571C575.215 261.81 559.304 289.873 532.487 298.897C501.958 309.17 468.627 288.079 462.999 254.686C459.58 234.397 465.332 216.826 480.043 201.895ZM546.105 210.426C544.337 207.805 542.796 204.991 540.759 202.6C534.727 195.521 527.469 190.508 517.76 190.142C504.64 189.648 495.771 196.764 488.876 206.834C478.957 221.321 476.837 237.735 478.822 254.664C480.279 267.097 484.777 278.58 493.613 287.872C508.217 303.231 528.365 302.694 540.97 285.604C558.239 262.191 558.349 236.927 546.105 210.426Z" fill="#545454"/>
<path d="M380.567 213.595C380.348 204.809 381.493 196.296 377.771 187.703C385.058 187.703 392.087 187.703 399.777 187.703C398.198 193.137 401.315 197.289 403.395 201.674C416.526 229.359 429.76 256.995 442.969 284.642C443.539 285.835 444.203 286.983 444.901 288.298C446.86 281.799 445.932 194.565 443.854 188.037C446.962 187.314 450.013 187.285 453.594 188.144C449.963 193.362 450.413 199.039 450.415 204.659C450.428 232.313 450.431 259.967 450.396 287.621C450.39 291.952 450.282 296.266 452.978 300.78C445.515 300.78 438.705 300.78 431.541 300.78C432.504 296.326 430.691 292.664 428.885 288.896C415.567 261.115 402.347 233.288 389.083 205.482C388.247 203.729 387.302 202.029 386.234 199.969C384.844 202.123 385.407 203.981 385.403 205.707C385.352 233.028 385.38 260.349 385.334 287.669C385.326 292.161 385.059 296.651 388.642 300.625C384.672 301.727 381.364 301.207 377.183 301.026C380.482 296.603 380.113 292.267 380.142 287.953C380.309 263.304 379.655 238.65 380.567 213.595Z" fill="#545454"/>
<path d="M306.311 266.696C296.854 256.797 296.963 244.631 297.362 232.62C297.76 220.627 297.476 208.644 297.685 196.659C297.736 193.736 296.447 191.224 295.148 187.988C301.783 187.988 307.877 187.988 314.62 187.988C311.283 192.633 311.529 197.424 311.55 202.244C311.624 219.062 311.551 235.882 311.564 252.701C311.569 260.085 312.268 267.449 319.879 271.12C328.282 275.174 337.012 275.221 345.285 270.522C351.214 267.154 352.543 261.053 352.613 254.976C352.836 235.66 352.686 216.339 352.667 197.02C352.664 193.968 351.25 191.3 349.759 188.045C356.227 188.045 362.225 188.045 367.802 188.045C364.961 204.05 367.059 220.138 366.44 236.124C366.26 240.775 366.636 245.505 365.918 250.067C363.915 262.785 356.438 271.232 344.188 274.907C330.347 279.06 317.527 277.049 306.311 266.696Z" fill="#545454"/>
<path d="M231.862 89.8305C229.347 91.1511 227.14 94.1224 224.638 91.8793C222.457 89.9244 224.389 87.236 225.489 85.1009C226.751 82.651 228.715 80.9085 231.661 80.8183C233.254 80.7695 234.711 81.4461 235.269 82.9501C236.44 86.1089 233.862 87.6907 231.862 89.8305Z" fill="#545454"/>
</svg>
