<svg width="569" height="308" viewBox="0 0 569 308" fill="none" xmlns="http://www.w3.org/2000/svg">
<path d="M312.034 154.629C316.648 159.431 320.549 155.927 324.023 153.609C331.7 148.489 337.725 141.557 343.199 134.168C352.524 121.583 364.28 112.54 379.756 109.041C386.885 107.429 389.662 109.109 391.227 115.519C393.317 115.184 393.743 113.08 395.015 111.92C396.105 110.925 397.035 109.25 398.704 109.912C402.915 111.582 406.44 109.592 410.386 107.8C410.738 110.375 408.845 111.215 407.741 112.387C398.605 122.077 389.769 132.01 382.519 143.25C380.893 145.771 379.325 148.321 378.56 151.275C377.41 155.715 379.746 158.062 384.198 156.802C387.28 155.93 389.908 154.163 392.387 152.17C399.832 146.184 405.914 138.91 411.699 131.382C416.378 125.293 421.472 119.616 427.207 114.518C427.58 114.187 427.903 113.788 428.31 113.509C432.373 110.713 436.46 106.591 441.726 109.633C447.079 112.725 444.785 118.082 444.071 122.753C443.998 123.234 443.95 123.718 443.835 124.645C446.159 124.283 447.111 122.441 448.403 121.196C453.199 116.571 457.926 111.899 464.433 109.643C468.227 108.327 471.963 107.773 475.256 110.592C478.723 113.56 477.98 117.614 477.053 121.292C475.434 127.71 470.819 132.14 466.142 136.458C461.992 140.289 457.825 144.11 453.844 148.114C451.924 150.045 450.37 152.666 452.093 155.302C453.85 157.991 456.876 157.098 459.414 156.467C462.87 155.607 465.624 153.372 468.359 151.188C475.032 145.858 480.575 139.451 485.748 132.701C494.963 120.676 506.529 112.195 521.502 108.972C528.19 107.532 530.819 109.175 532.685 115.67C534.586 115.05 535.144 113.122 536.38 111.955C537.335 111.054 538.234 109.368 539.542 109.89C543.995 111.668 547.797 109.381 551.829 107.947C552.135 110.451 550.314 111.149 549.254 112.253C540.945 120.897 533.163 129.983 526.124 139.701C523.677 143.078 521.378 146.573 519.994 150.531C518.371 155.174 520.68 157.715 525.506 156.709C528.334 156.12 530.684 154.532 532.927 152.783C539.799 147.426 545.418 140.858 550.869 134.123C551.943 132.796 552.756 131.001 554.782 130.957C555.752 132.228 555.189 133.106 554.581 133.892C548.146 142.195 541.416 150.216 532.77 156.352C531.691 157.119 530.563 157.844 529.382 158.434C520.593 162.822 515.027 159.096 515.625 149.231C515.741 147.321 515.981 145.419 516.208 143.04C512.168 147.608 508.089 151.496 503.482 154.753C498.591 158.212 493.598 162.255 487.129 159.271C480.977 156.433 480.993 150.359 480.713 144.2C478.192 145.061 477.015 147.148 475.419 148.622C470.887 152.803 466.389 157.047 460.514 159.275C456.047 160.969 451.613 161.015 448.055 157.267C444.66 153.691 444.88 149.402 446.515 145.121C449.122 138.293 454.636 133.881 459.892 129.287C463.521 126.115 467.368 123.129 470.026 119.043C471.335 117.03 473.188 114.567 471.048 112.235C469.147 110.163 466.663 111.481 464.577 112.454C457.514 115.747 451.95 120.986 446.779 126.669C438.261 136.03 430.658 146.14 423.09 156.269C421.288 158.681 419.713 160.566 416.175 159.346C412.871 158.207 409.772 160.156 406.351 161.399C405.983 158.811 407.887 157.947 408.971 156.76C418.947 145.83 429.338 135.246 437.206 122.57C438.427 120.603 439.396 118.47 440.378 116.365C441.027 114.975 441.425 113.448 440.141 112.182C438.681 110.741 437.073 111.372 435.535 112.11C431.115 114.23 427.419 117.372 424.24 121.001C417.886 128.254 411.713 135.669 405.578 143.11C401.631 147.897 396.961 151.881 392.231 155.813C390.169 157.527 387.788 158.741 385.254 159.594C379.113 161.664 374.619 158.634 374.264 152.15C374.14 149.896 374.244 147.629 374.244 144.549C370.08 148.094 366.608 151.081 363.096 154.022C362.079 154.873 360.975 155.628 359.868 156.363C348.307 164.047 340.38 160.187 339.372 146.394C339.325 145.751 339.253 145.11 339.147 143.983C334.838 147.826 330.835 151.426 326.797 154.986C324.656 156.875 322.184 158.228 319.529 159.254C311.686 162.282 306.271 158.064 307.171 149.612C307.29 148.497 307.9 147.371 306.81 146.044C303.015 147.754 300.581 151.31 297.196 153.598C293.594 156.032 290.011 158.362 285.786 159.567C275.796 162.417 271.11 158.251 272.437 146.943C268.998 149.836 265.91 152.441 262.813 155.036C260.231 157.201 257.303 158.82 254.125 159.808C248.242 161.636 244.224 158.821 243.898 152.657C243.758 150.026 244.09 147.369 244.249 143.799C242.45 145.51 241.007 146.881 239.566 148.254C235.102 152.508 230.601 156.785 224.785 159.096C216.445 162.411 211.358 158.435 212.192 149.456C212.282 148.481 212.5 147.518 212.825 145.531C209.236 148.651 206.328 151.172 203.428 153.703C200.395 156.35 197.132 158.587 193.206 159.711C186.477 161.636 182.02 158.277 182.175 151.195C182.296 145.703 184.557 140.827 187.228 136.195C192.237 127.507 198.541 119.756 205.009 112.144C206.073 110.892 207.29 109.121 209.076 109.839C213.466 111.603 217.117 109.469 221.272 107.733C221.581 110.317 219.759 111.184 218.605 112.307C209.296 121.367 200.431 130.82 192.72 141.313C191.637 142.787 190.526 144.256 189.609 145.834C187.804 148.937 184.558 152.655 187.653 155.718C191.031 159.06 195.238 156.23 198.468 153.945C207.25 147.734 214.314 139.772 220.397 130.95C224.748 124.641 229.332 118.525 234.16 112.58C235.862 110.485 237.533 109.155 240.511 110.269C244.442 111.738 247.608 108.666 251.141 107.173C251.625 110.079 249.697 110.621 248.625 111.699C238.889 121.489 229.357 131.462 221.12 142.591C219.141 145.265 217.34 148.082 216.291 151.291C215.033 155.142 216.399 156.95 220.479 156.957C223.1 156.961 225.25 155.795 227.379 154.43C239.386 146.731 247.57 135.282 256.493 124.562C258.834 121.75 261.066 118.846 263.291 115.939C265.991 112.411 268.144 108.442 273.996 110.424C276.817 111.38 279.286 108.096 282.545 107.602C282.928 109.816 281.161 110.545 280.141 111.58C270.921 120.948 261.96 130.543 253.863 140.926C251.495 143.963 249.333 147.135 247.978 150.739C246.288 155.233 248.299 157.564 253.029 156.719C257.288 155.958 260.626 153.374 263.716 150.605C270.664 144.379 276.975 137.567 282.33 129.858C300.186 104.147 318.584 78.8515 340.334 56.2355C348.195 48.0621 356.706 40.6699 366.582 34.955C372.44 31.5653 378.723 29.5711 385.363 28.7718C402.173 26.7484 413.477 41.2496 408.022 58.0997C403.538 71.9514 393.555 81.0297 380.837 87.1079C373.492 90.6183 365.707 93.1271 357.37 93.0978C355.36 93.0907 353.317 93.1377 351.624 91.8915C349.268 90.1572 348.743 87.767 350.185 85.2894C351.515 83.0049 353.546 81.9649 355.998 83.8521C359.69 86.6929 363.939 85.8359 368.017 85.6829C385.267 85.0356 403.851 69.4184 406.285 53.6638C408.505 39.2996 397.64 28.874 383.4 31.5747C374.663 33.2316 367.248 37.4669 360.443 42.9561C348.313 52.7415 338.377 64.6163 329.096 77.0136C314.238 96.8596 300.137 117.255 286.567 138.011C284.21 141.617 282.316 145.542 280.379 149.407C279.352 151.455 278.01 153.899 279.917 155.922C281.752 157.87 284.301 156.852 286.503 156.182C292.722 154.289 297.517 150.119 302.219 145.895C312.328 136.814 319.106 124.936 327.918 114.758C330.546 111.723 332.559 108.321 337.637 110.466C340.374 111.622 342.828 108.699 345.779 108.394C346.494 110.104 345.154 110.79 344.295 111.632C334.911 120.839 325.857 130.357 317.966 140.903C315.01 144.854 311.649 148.753 312.034 154.629ZM505.294 124.628C498.413 131.879 492.05 139.499 488.37 148.986C487.459 151.335 486.478 153.992 488.665 155.953C490.731 157.805 493.386 157.048 495.712 156.026C497.216 155.365 498.638 154.471 500.002 153.542C510.035 146.71 517.886 137.821 524.226 127.516C526.145 124.398 528.044 121.264 528.706 117.592C529.057 115.643 529.607 113.457 527.777 112.006C526.008 110.604 524.026 111.352 522.146 112.164C515.788 114.91 510.683 119.371 505.294 124.628ZM380.473 131.308C382.144 128.438 384.038 125.673 385.427 122.672C387.002 119.267 389.527 114.957 386.095 112.115C382.917 109.483 379.092 112.712 376.194 114.637C364.37 122.492 355.063 132.775 348.663 145.505C347.048 148.718 343.975 152.831 347.605 155.958C350.99 158.874 354.837 156.029 358.041 153.974C366.983 148.243 373.915 140.456 380.473 131.308Z" fill="white"/>
<path d="M285.91 285.982C308.051 297.693 329.633 297.935 350.913 284.725C357.132 280.865 361.614 275.428 364.986 268.165C366.344 270.511 365.8 272.146 365.378 273.84C361.031 291.28 345.275 304.853 326.554 307.235C292.606 311.554 268.514 296.371 251.771 268.073C247.713 261.215 243.526 258.605 235.785 259.12C223.982 259.904 225.624 257.69 225.491 269.616C225.43 275.114 225.529 280.614 225.465 286.113C225.406 291.103 225.199 296.096 228.615 300.942C221.07 300.942 214.208 300.942 206.639 300.942C210.956 293.925 209.809 286.542 209.825 279.324C209.879 254.328 209.818 229.332 209.869 204.336C209.88 198.84 209.961 193.381 206 187.224C214.191 187.224 221.248 186.942 228.275 187.288C239.358 187.835 250.509 186.67 261.532 188.548C277.189 191.214 286.938 202.223 288.357 218.185C289.4 229.921 288.047 240.78 279.196 249.509C275.448 253.206 270.935 255.638 265.963 257.193C262.178 258.377 261.359 260.175 263.639 263.738C269.385 272.713 276.369 280.357 285.91 285.982ZM269.791 238.095C272.337 231.192 272.187 223.982 271.585 216.88C270.403 202.924 262.262 194.195 248.584 191.032C243.149 189.776 237.686 190.582 232.267 190.09C227.435 189.652 225.529 191.996 225.521 196.425C225.488 215.228 225.531 234.031 225.473 252.833C225.465 255.59 226.541 256.769 229.295 256.709C233.933 256.608 238.59 256.891 243.214 256.601C255.384 255.837 264.856 250.84 269.791 238.095Z" fill="white"/>
<path d="M162.907 139.398C147.336 156.369 128.89 167.609 106.318 171.036C94.9992 172.754 83.4608 174.088 72.8815 167.642C64.7068 162.661 63.7463 151.965 70.7976 145.52C72.9833 143.522 75.5051 142.535 78.5012 142.61C80.8404 142.669 82.8223 143.329 83.8644 145.522C85.004 147.92 84.3234 150.218 82.4983 151.914C80.4414 153.825 78.0708 155.394 75.8623 157.144C71.834 160.336 72.0264 163.564 76.4628 166.133C78.7741 167.471 81.2692 168.328 83.9642 168.629C101.737 170.614 117.896 166.148 132.563 156.141C147.027 146.272 158.115 132.967 168.903 119.401C169.373 118.81 169.556 117.988 170.181 116.581C167.205 117.353 165.604 119.054 163.849 120.369C157.017 125.493 149.728 129.758 141.574 132.358C126.8 137.068 114.121 128.318 113.436 112.81C113.288 109.453 112.315 108.152 108.841 108.018C102.38 107.769 95.9683 106.826 89.8499 104.523C66.4694 95.7231 56.6092 70.9126 68.3984 47.922C82.8292 19.7799 106.766 4.62974 137.673 0.118997C139.298 -0.118049 141.026 -0.20507 142.287 1.90292C139.544 4.07079 136.133 3.70442 133.118 4.06179C105.126 7.37997 76.0478 32.9129 70.655 60.6629C64.8476 90.5468 86.5468 105.847 110.402 104.82C112.496 104.73 113.746 103.834 114.365 101.766C119.169 85.7198 128.938 72.7143 139.777 60.4182C155.979 42.0372 174.432 26.4183 196.358 15.2977C203.914 11.4655 211.781 8.2546 220.567 8.61622C227.639 8.90727 231.623 12.9473 231.374 20.0921C231.041 29.6185 226.024 37.2774 220.342 44.2047C196.216 73.6222 166.5 94.8685 129.585 105.159C126.683 105.968 125.005 107.251 124.41 110.329C123.207 116.55 120.635 123.379 126.767 127.954C132.489 132.222 139.309 130.257 145.317 127.654C155.945 123.048 164.845 115.707 173.545 108.223C180.346 102.372 186.85 96.1704 193.445 90.0795C197.132 86.6745 201.066 83.6211 205.598 81.4579C208.541 80.0529 211.621 79.1013 214.68 80.2431C215.021 81.6594 214.476 82.2023 213.874 82.3285C204.794 84.2322 199.641 91.0335 194.632 97.9339C184.473 111.929 175.173 126.582 162.907 139.398ZM196.225 64.3542C204.877 56.0762 213.518 47.7936 219.964 37.5412C222.995 32.7193 225.606 27.6977 226.688 22.0637C228.075 14.837 224.688 11.2769 217.455 11.8772C211.532 12.3686 206.019 14.2459 201.033 17.2614C169.296 36.4534 146.377 63.7431 129.507 96.4801C128.675 98.094 127.411 99.9418 128.526 102.023C142.519 101.267 174.152 83.7183 196.225 64.3542Z" fill="white"/>
<path d="M155.468 301.269C142.231 301.272 129.491 301.272 115.99 301.272C119.858 294.236 118.515 287.238 118.54 280.411C118.641 253.28 118.566 226.149 118.569 199.018C118.57 195.341 118.739 191.645 116.134 188.957C116.507 187.542 117.386 187.29 118.152 187.274C133.385 186.952 148.648 186.347 163.8 188.383C173.982 189.751 182.009 194.932 184.087 205.481C186.218 216.294 185.19 226.867 174.914 234.035C174.512 234.315 174.089 234.566 173.624 234.863C175.178 236.918 177.243 237.109 179.015 237.8C193 243.25 199.907 255.678 198.215 272.429C196.693 287.507 187.721 297.383 173.283 300.251C167.523 301.395 161.753 301.226 155.468 301.269ZM177.057 249.876C174.874 246.664 172.164 244.013 168.734 242.174C159.111 237.015 148.646 237.216 138.2 237.483C135.781 237.545 134.86 239.21 134.863 241.568C134.892 258.867 134.867 276.167 134.897 293.467C134.904 297.151 136.761 298.886 140.521 298.748C144.824 298.591 149.142 298.8 153.442 298.598C167.348 297.945 177.924 290.022 180.441 277.746C182.343 268.471 181.917 259.2 177.057 249.876ZM134.845 206.451C134.845 211.434 134.845 216.418 134.845 221.401C134.844 235.545 134.844 235.545 149.16 234.587C157.976 233.996 163.676 229.671 166.556 221.384C172.744 203.584 163.314 190.021 144.739 190.012C143.085 190.011 141.43 190.044 139.776 190.047C136.491 190.051 134.926 191.793 134.883 194.993C134.837 198.48 134.855 201.969 134.845 206.451Z" fill="white"/>
<path d="M52.3951 210.437C54.9675 213.472 56.4378 216.964 59.8905 219.502C63.7014 215.272 66.1104 210.543 66.571 204.922C66.8341 201.711 65.1686 199.558 62.2015 198.395C61.1988 198.003 60.4262 197.365 60.6705 196.165C60.8575 195.245 61.6119 194.753 62.4971 194.766C69.9417 194.872 77.4016 194.11 84.8252 195.144C85.1805 195.194 85.4573 195.812 85.7902 196.187C85.6164 196.722 85.5874 197.486 85.2993 197.602C73.7908 202.249 71.9739 214.42 65.6743 223.094C65.263 223.66 65.1865 224.722 65.3777 225.44C66.7885 230.734 76.9448 235.832 82.0719 233.846C83.2819 233.377 84.4854 232.251 85.6207 233.699C86.6489 235.01 85.6466 236.2 84.9987 237.345C78.1256 249.484 65.4812 252.135 54.7761 243.275C51.1626 240.284 48.654 239.876 44.5266 242.544C36.5251 247.717 27.666 250.349 17.9691 247.839C1.62241 243.606 -5.09782 226.006 4.25901 211.838C7.63695 206.723 12.2042 202.787 17.592 200.086C21.4679 198.143 22.9584 196.153 21.5548 191.604C19.87 186.144 20.2094 180.39 21.7872 174.824C25.2289 162.681 38.7216 155.179 50.4526 158.854C62.5596 162.648 66.2747 175.97 58.0234 185.675C54.1401 190.242 48.7219 192.479 43.059 195.733C46.2107 200.706 49.2008 205.424 52.3951 210.437ZM36.9814 223.334C32.8292 216.662 28.677 209.991 24.5511 203.362C18.455 206.791 16.2894 210.234 17.602 215.093C19.7247 222.95 23.7947 229.775 30.1111 234.96C34.875 238.87 39.6881 238.417 44.4875 233.91C42.1479 230.616 39.7716 227.27 36.9814 223.334ZM35.329 174.976C35.9505 179.118 37.3346 183.007 38.9874 186.842C40.2666 189.81 41.897 189.912 44.3872 188.266C48.6404 185.456 49.2634 181.369 48.5909 176.858C47.916 172.331 46.6625 167.813 42.221 165.658C39.0073 164.099 36.3112 165.575 35.409 169.175C35.016 170.743 35.2818 172.477 35.329 174.976Z" fill="white"/>
<path d="M478.168 201.895C493.986 187.727 511.848 183.385 531.558 190.262C551.454 197.205 562.933 212.283 567.044 232.571C572.968 261.81 557.12 289.873 530.407 298.897C499.997 309.17 466.796 288.079 461.191 254.686C457.785 234.397 463.514 216.826 478.168 201.895ZM543.972 210.426C542.211 207.805 540.676 204.991 538.647 202.6C532.638 195.521 525.409 190.508 515.738 190.142C502.669 189.648 493.835 196.764 486.967 206.834C477.087 221.321 474.974 237.735 476.951 254.664C478.403 267.097 482.884 278.58 491.685 287.872C506.232 303.231 526.301 302.694 538.857 285.604C556.059 262.191 556.168 236.927 543.972 210.426Z" fill="white"/>
<path d="M379.08 213.595C378.863 204.809 380.002 196.296 376.295 187.703C383.554 187.703 390.555 187.703 398.216 187.703C396.643 193.137 399.747 197.289 401.819 201.674C414.899 229.359 428.081 256.995 441.239 284.642C441.807 285.835 442.468 286.983 443.163 288.298C445.114 281.799 444.19 194.565 442.12 188.037C445.216 187.314 448.255 187.285 451.822 188.144C448.205 193.362 448.653 199.039 448.656 204.659C448.668 232.313 448.671 259.967 448.636 287.621C448.631 291.952 448.523 296.266 451.208 300.78C443.775 300.78 436.991 300.78 429.855 300.78C430.814 296.326 429.008 292.664 427.209 288.896C413.944 261.115 400.775 233.288 387.563 205.482C386.73 203.729 385.789 202.029 384.725 199.969C383.34 202.123 383.901 203.981 383.898 205.707C383.846 233.028 383.874 260.349 383.828 287.669C383.821 292.161 383.555 296.651 387.123 300.625C383.169 301.727 379.874 301.207 375.709 301.026C378.995 296.603 378.628 292.267 378.657 287.953C378.823 263.304 378.172 238.65 379.08 213.595Z" fill="white"/>
<path d="M305.115 266.696C295.695 256.797 295.803 244.631 296.2 232.62C296.597 220.627 296.314 208.644 296.522 196.659C296.573 193.736 295.289 191.224 293.995 187.988C300.604 187.988 306.674 187.988 313.391 187.988C310.067 192.633 310.312 197.424 310.333 202.244C310.407 219.062 310.334 235.882 310.346 252.701C310.352 260.085 311.048 267.449 318.63 271.12C327 275.174 335.696 275.221 343.936 270.522C349.842 267.154 351.166 261.053 351.236 254.976C351.458 235.66 351.308 216.339 351.29 197.02C351.287 193.968 349.878 191.3 348.393 188.045C354.836 188.045 360.81 188.045 366.365 188.045C363.535 204.05 365.625 220.138 365.009 236.124C364.83 240.775 365.203 245.505 364.488 250.067C362.494 262.785 355.045 271.232 342.843 274.907C329.056 279.06 316.286 277.049 305.115 266.696Z" fill="white"/>
<path d="M230.956 89.8305C228.451 91.1511 226.253 94.1224 223.76 91.8793C221.588 89.9244 223.512 87.236 224.608 85.1009C225.865 82.651 227.821 80.9085 230.756 80.8183C232.343 80.7695 233.794 81.4461 234.35 82.9501C235.517 86.1089 232.948 87.6907 230.956 89.8305Z" fill="white"/>
</svg>
